<?xml version="1.0" encoding="UTF-8" standalone="no"?>
<svg
   xmlns:osb="http://www.openswatchbook.org/uri/2009/osb"
   xmlns:dc="http://purl.org/dc/elements/1.1/"
   xmlns:cc="http://creativecommons.org/ns#"
   xmlns:rdf="http://www.w3.org/1999/02/22-rdf-syntax-ns#"
   xmlns:svg="http://www.w3.org/2000/svg"
   xmlns="http://www.w3.org/2000/svg"
   xmlns:sodipodi="http://sodipodi.sourceforge.net/DTD/sodipodi-0.dtd"
   xmlns:inkscape="http://www.inkscape.org/namespaces/inkscape"
   width="64.426041mm"
   height="53.497276mm"
   viewBox="0 0 64.426041 53.497276"
   version="1.1"
   id="svg1590"
   inkscape:version="1.0.2 (e86c870, 2021-01-15)"
   sodipodi:docname="test.svg">
  <defs
     id="defs1584">
    <radialGradient
       id="SVGID_9_"
       cx="811.77972"
       cy="675.25751"
       r="60.768299"
       gradientUnits="userSpaceOnUse">
      <stop
         offset="0"
         style="stop-color:#FFFFFF"
         id="stop1137" />
      <stop
         offset="0.4408"
         style="stop-color:#FDFDFD"
         id="stop1139" />
      <stop
         offset="0.6288"
         style="stop-color:#F6F6F6"
         id="stop1141" />
      <stop
         offset="0.7688"
         style="stop-color:#E9E9E9"
         id="stop1143" />
      <stop
         offset="0.8844"
         style="stop-color:#D8D8D8"
         id="stop1145" />
      <stop
         offset="0.9847"
         style="stop-color:#C1C1C1"
         id="stop1147" />
      <stop
         offset="1"
         style="stop-color:#BDBDBD"
         id="stop1149" />
    </radialGradient>
    <radialGradient
       id="SVGID_10_"
       cx="907.84698"
       cy="685.27643"
       r="49.8517"
       gradientUnits="userSpaceOnUse">
      <stop
         offset="0"
         style="stop-color:#FFFFFF"
         id="stop1166" />
      <stop
         offset="0.4408"
         style="stop-color:#FDFDFD"
         id="stop1168" />
      <stop
         offset="0.6288"
         style="stop-color:#F6F6F6"
         id="stop1170" />
      <stop
         offset="0.7688"
         style="stop-color:#E9E9E9"
         id="stop1172" />
      <stop
         offset="0.8844"
         style="stop-color:#D8D8D8"
         id="stop1174" />
      <stop
         offset="0.9847"
         style="stop-color:#C1C1C1"
         id="stop1176" />
      <stop
         offset="1"
         style="stop-color:#BDBDBD"
         id="stop1178" />
    </radialGradient>
  </defs>
  <sodipodi:namedview
     id="base"
     pagecolor="#ffffff"
     bordercolor="#666666"
     borderopacity="1.0"
     inkscape:pageopacity="0.0"
     inkscape:pageshadow="2"
     inkscape:zoom="2.1068829"
     inkscape:cx="-87.939316"
     inkscape:cy="96.313134"
     inkscape:document-units="mm"
     inkscape:current-layer="layer1"
     inkscape:document-rotation="0"
     showgrid="false"
     inkscape:window-width="1920"
     inkscape:window-height="1043"
     inkscape:window-x="1920"
     inkscape:window-y="1080"
     inkscape:window-maximized="1" />
  <metadata
     id="metadata1587">
    <rdf:RDF>
      <cc:Work
         rdf:about="">
        <dc:format>image/svg+xml</dc:format>
        <dc:type
           rdf:resource="http://purl.org/dc/dcmitype/StillImage" />
        <dc:title></dc:title>
      </cc:Work>
    </rdf:RDF>
  </metadata>
  <g
     inkscape:label="Layer 1"
     inkscape:groupmode="layer"
     id="layer1"
     transform="translate(-1.8419416,-1.6315956)">
    <g
       id="g1164"
       transform="matrix(-0.26458333,0,0,0.26458333,262.48298,-143.09842)">
      <g
         id="g1156">
        <radialGradient
           id="radialGradient1546"
           cx="811.77972"
           cy="675.25751"
           r="60.768299"
           gradientUnits="userSpaceOnUse"
           osb:paint="gradient">
          <stop
             offset="0"
             style="stop-color:#FFFFFF"
             id="stop1532" />
          <stop
             offset="0.4408"
             style="stop-color:#FDFDFD"
             id="stop1534" />
          <stop
             offset="0.6288"
             style="stop-color:#F6F6F6"
             id="stop1536" />
          <stop
             offset="0.7688"
             style="stop-color:#E9E9E9"
             id="stop1538" />
          <stop
             offset="0.8844"
             style="stop-color:#D8D8D8"
             id="stop1540" />
          <stop
             offset="0.9847"
             style="stop-color:#C1C1C1"
             id="stop1542" />
          <stop
             offset="1"
             style="stop-color:#BDBDBD"
             id="stop1544" />
        </radialGradient>
        <path
           fill="url(#SVGID_9_)"
           d="m 761.2,656.8 c -10.9,41.8 10.6,82.9 38.7,85.6 26.9,2.5 53.6,-18.6 63.8,-57.2 7.6,-28.7 -13.7,-27.8 -37.2,-62.2 -22.7,-33.1 -54.7,-6.7 -65.3,33.8 z"
           id="path1152"
           style="fill:#ececec" />
        <path
           d="m 804.3,745.1 c -0.1,0 0,0 0,0 -1.5,0 -3.1,-0.1 -4.6,-0.2 -11.4,-1.1 -22.2,-8.1 -30.3,-19.7 -12.9,-18.4 -16.9,-44.8 -10.6,-69.1 7.8,-29.9 26.1,-50.7 44.4,-50.7 6.6,0 16.3,2.8 25.4,16.1 8.5,12.5 16.8,20.2 23.4,26.5 11.7,11 19.3,18.2 14.2,37.8 -9.6,36 -33.9,59.3 -61.9,59.3 z m -1.2,-134.6 c -15.8,0 -32.4,19.7 -39.4,46.9 -6,22.8 -2.2,47.7 9.8,64.8 7.3,10.4 16.7,16.6 26.6,17.6 1.4,0.1 2.7,0.2 4.1,0.2 25.7,0 48,-21.8 56.9,-55.5 4.4,-16.7 -1.3,-22.1 -12.7,-32.8 -6.8,-6.4 -15.3,-14.4 -24.1,-27.3 -6.3,-9.2 -13.4,-13.9 -21.2,-13.9 z"
           id="path1154" />
      </g>
      <g
         id="g1160">
        <path
           fill="#0b0b0b"
           d="m 836.5,686.9 c -2.4,10.6 -11.9,18.2 -21.3,17.1 -9.5,-1.2 -15.3,-11.1 -12.6,-21.9 2.6,-10.8 12.4,-18.2 21.7,-16.7 9.2,1.4 14.6,11 12.2,21.5 z"
           id="path1158"
           style="fill:#000000" />
      </g>
      <circle
         fill="#ffffff"
         cx="833.09998"
         cy="682.09998"
         r="6.4000001"
         id="circle1162"
         style="fill:#ffffff" />
    </g>
    <g
       id="g1193"
       transform="matrix(-0.26458333,0,0,0.26458333,262.48298,-143.09842)">
      <g
         id="g1185">
        <radialGradient
           id="radialGradient1569"
           cx="907.84698"
           cy="685.27643"
           r="49.8517"
           gradientUnits="userSpaceOnUse"
           osb:paint="gradient">
          <stop
             offset="0"
             style="stop-color:#FFFFFF"
             id="stop1555" />
          <stop
             offset="0.4408"
             style="stop-color:#FDFDFD"
             id="stop1557" />
          <stop
             offset="0.6288"
             style="stop-color:#F6F6F6"
             id="stop1559" />
          <stop
             offset="0.7688"
             style="stop-color:#E9E9E9"
             id="stop1561" />
          <stop
             offset="0.8844"
             style="stop-color:#D8D8D8"
             id="stop1563" />
          <stop
             offset="0.9847"
             style="stop-color:#C1C1C1"
             id="stop1565" />
          <stop
             offset="1"
             style="stop-color:#BDBDBD"
             id="stop1567" />
        </radialGradient>
        <path
           fill="url(#SVGID_10_)"
           d="m 949,680.9 c -1.9,35 -23.9,59.2 -45.7,61.3 -22.7,2.2 -38,-17.6 -36.7,-55.2 1,-28.3 19.7,-24.2 47.8,-51.1 24.7,-23.6 36.4,10.6 34.6,45 z"
           id="path1181"
           style="fill:#ececec" />
        <path
           d="m 899.9,745 c -8.7,0 -16.4,-3.3 -22.4,-9.4 -9.6,-10 -14.2,-26.7 -13.4,-48.6 0.7,-19.3 9.3,-24.8 22.4,-33 7.2,-4.5 16.1,-10.2 26.2,-19.8 5.9,-5.7 11.6,-8.6 16.8,-8.6 4.1,0 7.7,1.7 10.9,5 9.7,10.2 12.1,32.7 11.2,50.4 -0.9,16.8 -6.6,32.6 -15.9,44.4 -8.8,11.1 -20.5,18.2 -32.1,19.3 -1.3,0.2 -2.5,0.3 -3.7,0.3 z m 29.6,-114.3 c -3.9,0 -8.3,2.4 -13.3,7.1 -10.4,10 -19.6,15.8 -27,20.4 -12.5,7.9 -19.4,12.3 -20,28.9 -0.7,20.1 3.5,36 12,44.8 5,5.2 11.3,7.8 18.7,7.8 1,0 2.1,-0.1 3.2,-0.2 19.9,-2 41.5,-24.5 43.4,-58.9 1.1,-20.5 -2.8,-39.2 -9.8,-46.6 -2.3,-2.2 -4.6,-3.3 -7.2,-3.3 z"
           id="path1183" />
      </g>
      <g
         id="g1189">
        <path
           fill="#0b0b0b"
           d="m 890,691.5 c -0.7,9.9 5.2,17.5 13.1,17.1 7.8,-0.4 14.5,-8.5 15.2,-18.1 0.6,-9.5 -5,-17.1 -12.7,-17 -7.9,0.2 -14.9,8.2 -15.6,18 z"
           id="path1187"
           style="fill:#000000" />
      </g>
      <circle
         fill="#ffffff"
         cx="915.20001"
         cy="687.5"
         id="circle1191"
         r="6.4000001"
         style="fill:#ffffff" />
    </g>
    <g
       id="g1197"
       transform="matrix(-0.26458333,0,0,0.26458333,262.48298,-143.09842)"
       style="fill:#000000">
      <path
         fill="#0b0b0b"
         d="m 948.5,584.9 c -18.3,11.6 -59.4,65.9 -76.2,78.6 -0.5,0.2 -1.1,0.3 -1.6,0.4 -10.4,2.5 -46.8,-85.3 -69.1,-108 -22.9,-23.4 -60,6.8 -60,6.8 0,0 5.9,2.5 29.9,18.3 23.3,15.4 64.9,82.6 81.9,95.4 2,1.5 4,2.6 5.9,3.2 4.2,3.2 10.4,4.9 18.8,0.4 17.9,-9.6 65.8,-60.5 84.8,-68.3 18.2,-7.5 22.2,-8.2 22.2,-8.2 0,0 -16.3,-31.6 -36.6,-18.6 z"
         id="path1195"
         style="fill:#000000" />
    </g>
    <g
       id="g1201"
       transform="matrix(-0.26458333,0,0,0.26458333,262.48298,-143.09842)">
      <path
         fill="#0b0b0b"
         d="m 746.9,670.8 c 0,0 -17.7,83.9 58.5,77.9 0,0.1 -59.1,3 -58.5,-77.9 z"
         id="path1199" />
    </g>
    <g
       id="g1205"
       transform="matrix(-0.26458333,0,0,0.26458333,262.48298,-143.09842)">
      <path
         fill="#0b0b0b"
         d="m 896.3,748.2 c 0,0 46.1,3 59.6,-50.2 0.1,0 -0.5,59.6 -59.6,50.2 z"
         id="path1203" />
    </g>
  </g>
</svg>
