<?xml version="1.0" encoding="UTF-8" standalone="no"?>
<svg
   xmlns:dc="http://purl.org/dc/elements/1.1/"
   xmlns:cc="http://creativecommons.org/ns#"
   xmlns:rdf="http://www.w3.org/1999/02/22-rdf-syntax-ns#"
   xmlns:svg="http://www.w3.org/2000/svg"
   xmlns="http://www.w3.org/2000/svg"
   xmlns:sodipodi="http://sodipodi.sourceforge.net/DTD/sodipodi-0.dtd"
   xmlns:inkscape="http://www.inkscape.org/namespaces/inkscape"
   width="70.298096mm"
   height="63.341248mm"
   viewBox="0 0 70.298096 63.341247"
   version="1.1"
   id="svg1590"
   inkscape:version="1.0.2 (e86c870, 2021-01-15)"
   sodipodi:docname="test.svg">
  <defs
     id="defs1584">
    <radialGradient
       id="SVGID_9_"
       cx="811.77972"
       cy="675.25751"
       r="60.768299"
       gradientUnits="userSpaceOnUse">
      <stop
         offset="0"
         style="stop-color:#FFFFFF"
         id="stop1137" />
      <stop
         offset="0.4408"
         style="stop-color:#FDFDFD"
         id="stop1139" />
      <stop
         offset="0.6288"
         style="stop-color:#F6F6F6"
         id="stop1141" />
      <stop
         offset="0.7688"
         style="stop-color:#E9E9E9"
         id="stop1143" />
      <stop
         offset="0.8844"
         style="stop-color:#D8D8D8"
         id="stop1145" />
      <stop
         offset="0.9847"
         style="stop-color:#C1C1C1"
         id="stop1147" />
      <stop
         offset="1"
         style="stop-color:#BDBDBD"
         id="stop1149" />
    </radialGradient>
    <radialGradient
       id="SVGID_10_"
       cx="907.84698"
       cy="685.27643"
       r="49.8517"
       gradientUnits="userSpaceOnUse">
      <stop
         offset="0"
         style="stop-color:#FFFFFF"
         id="stop1166" />
      <stop
         offset="0.4408"
         style="stop-color:#FDFDFD"
         id="stop1168" />
      <stop
         offset="0.6288"
         style="stop-color:#F6F6F6"
         id="stop1170" />
      <stop
         offset="0.7688"
         style="stop-color:#E9E9E9"
         id="stop1172" />
      <stop
         offset="0.8844"
         style="stop-color:#D8D8D8"
         id="stop1174" />
      <stop
         offset="0.9847"
         style="stop-color:#C1C1C1"
         id="stop1176" />
      <stop
         offset="1"
         style="stop-color:#BDBDBD"
         id="stop1178" />
    </radialGradient>
    <radialGradient
       id="SVGID_13_"
       cx="186.8046"
       cy="275.46179"
       r="66.994102"
       gradientUnits="userSpaceOnUse">
      <stop
         offset="0"
         style="stop-color:#FFFFFF"
         id="stop1297" />
      <stop
         offset="0.4408"
         style="stop-color:#FDFDFD"
         id="stop1299" />
      <stop
         offset="0.6288"
         style="stop-color:#F6F6F6"
         id="stop1301" />
      <stop
         offset="0.7688"
         style="stop-color:#E9E9E9"
         id="stop1303" />
      <stop
         offset="0.8844"
         style="stop-color:#D8D8D8"
         id="stop1305" />
      <stop
         offset="0.9847"
         style="stop-color:#C1C1C1"
         id="stop1307" />
      <stop
         offset="1"
         style="stop-color:#BDBDBD"
         id="stop1309" />
    </radialGradient>
    <radialGradient
       id="SVGID_14_"
       cx="299.36041"
       cy="288.2467"
       r="60.747002"
       gradientUnits="userSpaceOnUse">
      <stop
         offset="0"
         style="stop-color:#FFFFFF"
         id="stop1336" />
      <stop
         offset="0.4408"
         style="stop-color:#FDFDFD"
         id="stop1338" />
      <stop
         offset="0.6288"
         style="stop-color:#F6F6F6"
         id="stop1340" />
      <stop
         offset="0.7688"
         style="stop-color:#E9E9E9"
         id="stop1342" />
      <stop
         offset="0.8844"
         style="stop-color:#D8D8D8"
         id="stop1344" />
      <stop
         offset="0.9847"
         style="stop-color:#C1C1C1"
         id="stop1346" />
      <stop
         offset="1"
         style="stop-color:#BDBDBD"
         id="stop1348" />
    </radialGradient>
  </defs>
  <sodipodi:namedview
     id="base"
     pagecolor="#ffffff"
     bordercolor="#666666"
     borderopacity="1.0"
     inkscape:pageopacity="0.0"
     inkscape:pageshadow="2"
     inkscape:zoom="2.9795824"
     inkscape:cx="213.65298"
     inkscape:cy="190.79011"
     inkscape:document-units="mm"
     inkscape:current-layer="g1316"
     inkscape:document-rotation="0"
     showgrid="false"
     inkscape:window-width="1920"
     inkscape:window-height="1043"
     inkscape:window-x="1920"
     inkscape:window-y="1080"
     inkscape:window-maximized="1" />
  <metadata
     id="metadata1587">
    <rdf:RDF>
      <cc:Work
         rdf:about="">
        <dc:format>image/svg+xml</dc:format>
        <dc:type
           rdf:resource="http://purl.org/dc/dcmitype/StillImage" />
        <dc:title></dc:title>
      </cc:Work>
    </rdf:RDF>
  </metadata>
  <g
     inkscape:label="Layer 1"
     inkscape:groupmode="layer"
     id="layer1"
     transform="translate(83.162545,26.271615)">
    <g
       id="g1334"
       transform="matrix(-0.26458333,0,0,0.26458333,14.812662,-59.476823)">
      <g
         id="g1324">
        <g
           id="g1316">
          <radialGradient
             id="radialGradient2791"
             cx="186.8046"
             cy="275.46179"
             r="66.994102"
             gradientUnits="userSpaceOnUse">
            <stop
               offset="0"
               style="stop-color:#FFFFFF"
               id="stop2777" />
            <stop
               offset="0.4408"
               style="stop-color:#FDFDFD"
               id="stop2779" />
            <stop
               offset="0.6288"
               style="stop-color:#F6F6F6"
               id="stop2781" />
            <stop
               offset="0.7688"
               style="stop-color:#E9E9E9"
               id="stop2783" />
            <stop
               offset="0.8844"
               style="stop-color:#D8D8D8"
               id="stop2785" />
            <stop
               offset="0.9847"
               style="stop-color:#C1C1C1"
               id="stop2787" />
            <stop
               offset="1"
               style="stop-color:#BDBDBD"
               id="stop2789" />
          </radialGradient>
          <path
             fill="url(#SVGID_13_)"
             d="m 129.8,275.1 c -0.2,41.8 25.1,75.8 56.6,76 31.5,0.2 57.2,-33.6 57.4,-75.4 0.2,-41.8 -25.1,-75.8 -56.6,-76 -31.4,-0.1 -57.2,33.6 -57.4,75.4 z"
             id="path1312"
             style="fill:#ececec" />
          <path
             d="m 186.6,353.7 c 0,0 0,0 0,0 h -0.3 c -16,-0.1 -31,-8.4 -42.2,-23.4 -11,-14.8 -17,-34.4 -16.9,-55.1 0.2,-43 27,-77.9 59.7,-77.9 h 0.3 c 16,0.1 31,8.4 42.2,23.4 11,14.8 17,34.4 16.9,55.1 -0.2,43 -27,77.9 -59.7,77.9 z M 187,202.3 c -29.9,0 -54.4,32.7 -54.6,72.8 -0.1,19.7 5.5,38.2 15.9,52.1 10.2,13.7 23.7,21.3 38.1,21.4 h 0.2 c 29.9,0 54.4,-32.7 54.6,-72.8 0.1,-19.7 -5.5,-38.2 -15.9,-52.1 -10.2,-13.7 -23.7,-21.3 -38.1,-21.4 z"
             id="path1314" />
        </g>
        <g
           id="g1320"
           style="fill:#000000">
          <circle
             fill="#0b0b0b"
             cx="189.5238"
             cy="314.11923"
             r="20.299999"
             id="circle1318"
             style="fill:#000000" />
        </g>
        <circle
           fill="#ffffff"
           cx="194.1673"
           cy="323.73047"
           r="7.6999998"
           id="circle1322"
           style="fill:#ffffff" />
      </g>
      <g
         id="g1328">
        <path
           fill="#0b0b0b"
           d="m 135,216.2 c 0,0 -41.7,67.5 11.9,126.3 0,0 -64.8,-53.6 -11.9,-126.3 z"
           id="path1326" />
      </g>
      <g
         id="g1332">
        <path
           fill="#0b0b0b"
           d="m 105.9,267.1 c 0,0 0,43 28.4,69.4 0.1,0.1 -37,-17.1 -28.4,-69.4 z"
           id="path1330" />
      </g>
    </g>
    <g
       id="g1377"
       transform="matrix(-0.26458333,0,0,0.26458333,14.812662,-59.476823)">
      <path
         fill="#0b0b0b"
         d="m 370.3,265.1 c 0,0 -15.1,-43.5 -41.1,-52.7 -26.1,-9.3 -30.1,-4.6 -30.1,-4.6 0,0 -4.6,-25.5 13.9,-25.5 18.5,0 48.6,33.6 57.3,82.8 z"
         id="path1375" />
    </g>
    <g
       id="g1381"
       transform="matrix(-0.26458333,0,0,0.26458333,14.812662,-59.476823)">
      <path
         fill="#0b0b0b"
         d="m 126.4,216.9 c 0,0 16.6,-47.9 45.4,-58.2 28.8,-10.3 33.2,-5.1 33.2,-5.1 0,0 5.1,-28.1 -15.3,-28.1 -20.4,0 -53.8,37.1 -63.3,91.4 z"
         id="path1379" />
    </g>
    <g
       id="g1355"
       transform="matrix(-0.26458333,0,0,0.26458333,14.812662,-59.476823)">
      <radialGradient
         id="radialGradient2821"
         cx="299.36041"
         cy="288.2467"
         r="60.747002"
         gradientUnits="userSpaceOnUse">
        <stop
           offset="0"
           style="stop-color:#FFFFFF"
           id="stop2807" />
        <stop
           offset="0.4408"
           style="stop-color:#FDFDFD"
           id="stop2809" />
        <stop
           offset="0.6288"
           style="stop-color:#F6F6F6"
           id="stop2811" />
        <stop
           offset="0.7688"
           style="stop-color:#E9E9E9"
           id="stop2813" />
        <stop
           offset="0.8844"
           style="stop-color:#D8D8D8"
           id="stop2815" />
        <stop
           offset="0.9847"
           style="stop-color:#C1C1C1"
           id="stop2817" />
        <stop
           offset="1"
           style="stop-color:#BDBDBD"
           id="stop2819" />
      </radialGradient>
      <path
         fill="url(#SVGID_14_)"
         d="m 351,288 c 0.2,37.9 -22.8,68.8 -51.3,68.9 -28.5,0.2 -51.9,-30.4 -52.1,-68.3 -0.2,-37.9 22.8,-68.8 51.3,-68.9 28.6,-0.2 51.9,30.4 52.1,68.3 z"
         id="path1351"
         style="fill:#ececec" />
      <path
         d="m 299.5,359.4 c -29.8,0 -54.2,-31.8 -54.4,-70.9 -0.2,-39.2 23.9,-71.3 53.8,-71.5 h 0.2 c 29.8,0 54.2,31.8 54.4,70.9 0.1,18.9 -5.4,36.7 -15.4,50.2 -10.2,13.7 -23.8,21.3 -38.5,21.3 z M 299.2,222.2 H 299 c -27.1,0.2 -49,29.9 -48.8,66.3 0.2,36.3 22.3,65.8 49.3,65.8 h 0.2 c 13,-0.1 25.2,-6.9 34.4,-19.3 9.4,-12.6 14.5,-29.3 14.4,-47.1 -0.2,-36.2 -22.3,-65.7 -49.3,-65.7 z"
         id="path1353" />
    </g>
    <g
       id="g1359"
       transform="matrix(-0.26458333,0,0,0.26458333,11.743273,-41.273437)"
       style="fill:#000000">
      <circle
         fill="#0b0b0b"
         cx="295.60001"
         cy="251.10001"
         r="18.4"
         id="circle1357"
         style="fill:#000000" />
    </g>
    <circle
       fill="#FFFFFF"
       cx="67.426079"
       cy="27.214418"
       r="2.0372915"
       id="circle1361"
       style="fill:#ffffff;stroke-width:0.264583"
       transform="scale(-1,1)" />
    <g
       id="g1367"
       transform="matrix(-0.26458333,0,0,0.26458333,14.812662,-59.476823)">
      <path
         fill="#0b0b0b"
         d="m 355.1,256.5 c 0,0 21.5,68.6 -38.7,108.4 0,0 69,-32.6 38.7,-108.4 z"
         id="path1365" />
    </g>
    <g
       id="g1371"
       transform="matrix(-0.26458333,0,0,0.26458333,14.812662,-59.476823)">
      <path
         fill="#0b0b0b"
         d="m 369.3,307.8 c 0,0 -9.6,37.8 -40.5,54.7 0,0 36.4,-6.9 40.5,-54.7 z"
         id="path1369" />
    </g>
  </g>
</svg>
